{
  "source": "C:\\Users\\Peter\\Desktop\\stuff\\MIUN\\quantitative_research\\video_compression\\videos\\BVI-HD\\BVI-HD_CDVL_videos\\ORIG\\CarpetCircleFast_1920x1080_60fps.mp4",
  "output": "C:\\Users\\Peter\\Desktop\\stuff\\MIUN\\quantitative_research\\video_compression\\compressed_videos\\BVI-HD\\hevc\\1\\CarpetCircleFast_1920x1080_60fps_hevc.mp4",
  "codec": "hevc",
  "ok": "Input #0, mov,mp4,m4a,3gp,3g2,mj2, from 'C:\\Users\\Peter\\Desktop\\stuff\\MIUN\\quantitative_research\\video_compression\\videos\\BVI-HD\\BVI-HD_CDVL_videos\\ORIG\\CarpetCircleFast_1920x1080_60fps.mp4':\n  Metadata:\n    major_brand     : isom\n    minor_version   : 512\n    compatible_brands: isomiso2avc1mp41\n    encoder         : Lavf54.28.101\n  Duration: 00:00:05.00, start: 0.000000, bitrate: 324759 kb/s\n  Stream #0:0[0x1](und): Video: h264 (High 4:4:4 Predictive) (avc1 / 0x31637661), yuv420p(progressive), 1920x1080, 324754 kb/s, 60 fps, 60 tbr, 60 tbn (default)\n    Metadata:\n      handler_name    : VideoHandler\n      vendor_id       : [0][0][0][0]\n[out#0/mp4 @ 0000026889e2ab40] Codec AVOption b:a (set bitrate (in bits/s)) has not been used for any stream. The most likely reason is either wrong type (e.g. a video option with no video streams) or that it is a private option of some decoder which was not actually used for any stream.\nStream mapping:\n  Stream #0:0 -> #0:0 (h264 (native) -> hevc (libx265))\nPress [q] to stop, [?] for help\n[libx265 @ 000002688a7ed300] Unknown option: \"aq-mode.\nx265 [info]: HEVC encoder version 4.1+190-8f11c33ac\nx265 [info]: build info [Windows][GCC 15.1.0][64 bit] 10bit\nx265 [info]: using cpu capabilities: MMX2 SSE2Fast LZCNT SSSE3 SSE4.2 AVX FMA3 BMI2 AVX2\nx265 [info]: Main 10 profile, Level-4.1 (Main tier)\nx265 [info]: Thread pool created using 12 threads\nx265 [info]: Slices                              : 1\nx265 [info]: frame threads / pool features       : 3 / wpp(17 rows)\nx265 [info]: Coding QT: max CU size, min CU size : 64 / 8\nx265 [info]: Residual QT: max TU size, max depth : 32 / 1 inter / 1 intra\nx265 [info]: ME / range / subpel / merge         : star / 57 / 3 / 3\nx265 [info]: Keyframe min / max / scenecut / bias  : 25 / 250 / 40 / 5.00 \nx265 [info]: Lookahead / bframes / badapt        : 25 / 4 / 2\nx265 [info]: b-pyramid / weightp / weightb       : 1 / 1 / 0\nx265 [info]: References / ref-limit  cu / depth  : 4 / on / on\nx265 [info]: AQ: mode / str / qg-size / cu-tree  : 2 / 1.0 / 32 / 1\nx265 [info]: Rate Control / qCompress            : ABR-1000 kbps / 0.60\nx265 [info]: VBV/HRD buffer / max-rate / init    : 1000 / 1000 / 0.750\nx265 [info]: tools: rect limit-modes rd=4 psy-rd=2.00 rdoq=2 psy-rdoq=1.00\nx265 [info]: tools: rskip mode=1 signhide tmvp strong-intra-smoothing lslices=4\nx265 [info]: tools: deblock sao dhdr10-info\nOutput #0, mp4, to 'C:\\Users\\Peter\\Desktop\\stuff\\MIUN\\quantitative_research\\video_compression\\compressed_videos\\BVI-HD\\hevc\\1\\CarpetCircleFast_1920x1080_60fps_hevc.mp4':\n  Metadata:\n    major_brand     : isom\n    minor_version   : 512\n    compatible_brands: isomiso2avc1mp41\n    encoder         : Lavf62.3.100\n  Stream #0:0(und): Video: hevc (hev1 / 0x31766568), yuv420p10le(tv, progressive), 1920x1080, q=2-31, 1000 kb/s, 60 fps, 15360 tbn (default)\n    Metadata:\n      encoder         : Lavc62.11.100 libx265\n      handler_name    : VideoHandler\n      vendor_id       : [0][0][0][0]\n    Side data:\n      cpb: bitrate max/min/avg: 1000000/0/1000000 buffer size: 1000000 vbv_delay: N/A\nframe=    0 fps=0.0 q=0.0 size=       0KiB time=N/A bitrate=N/A speed=N/A elapsed=0:00:00.54    \nframe=    0 fps=0.0 q=0.0 size=       0KiB time=N/A bitrate=N/A speed=N/A elapsed=0:00:01.23    \nframe=    0 fps=0.0 q=0.0 size=       0KiB time=N/A bitrate=N/A speed=N/A elapsed=0:00:01.77    \nframe=    0 fps=0.0 q=0.0 size=       0KiB time=N/A bitrate=N/A speed=N/A elapsed=0:00:02.28    \nframe=    0 fps=0.0 q=0.0 size=       0KiB time=N/A bitrate=N/A speed=N/A elapsed=0:00:02.80    \nframe=    0 fps=0.0 q=0.0 size=       0KiB time=N/A bitrate=N/A speed=N/A elapsed=0:00:03.33    \nframe=    0 fps=0.0 q=0.0 size=       0KiB time=N/A bitrate=N/A speed=N/A elapsed=0:00:03.84    \nframe=    0 fps=0.0 q=0.0 size=       0KiB time=N/A bitrate=N/A speed=N/A elapsed=0:00:04.37    \nframe=    0 fps=0.0 q=0.0 size=       0KiB time=N/A bitrate=N/A speed=N/A elapsed=0:00:04.91    \nframe=    0 fps=0.0 q=0.0 size=       0KiB time=N/A bitrate=N/A speed=N/A elapsed=0:00:05.44    \nframe=    0 fps=0.0 q=0.0 size=       0KiB time=N/A bitrate=N/A speed=N/A elapsed=0:00:05.99    \nframe=    0 fps=0.0 q=0.0 size=       0KiB time=N/A bitrate=N/A speed=N/A elapsed=0:00:06.51    \nframe=    0 fps=0.0 q=0.0 size=       0KiB time=N/A bitrate=N/A speed=N/A elapsed=0:00:07.04    \nframe=    0 fps=0.0 q=0.0 size=       0KiB time=N/A bitrate=N/A speed=N/A elapsed=0:00:07.58    \nframe=    1 fps=0.1 q=45.4 size=       0KiB time=-00:00:00.01 bitrate=N/A speed=N/A elapsed=0:00:08.11    \nframe=    2 fps=0.2 q=48.1 size=       0KiB time=00:00:00.00 bitrate=N/A speed=   0x elapsed=0:00:08.63    \nframe=    3 fps=0.3 q=50.9 size=       0KiB time=00:00:00.01 bitrate=  21.1kbits/s speed=0.00182x elapsed=0:00:09.17    \nframe=    3 fps=0.3 q=50.9 size=       0KiB time=00:00:00.01 bitrate=  21.1kbits/s speed=0.00172x elapsed=0:00:09.71    \nframe=    3 fps=0.3 q=50.9 size=       0KiB time=00:00:00.01 bitrate=  21.1kbits/s speed=0.00163x elapsed=0:00:10.23    \nframe=    4 fps=0.4 q=51.0 size=       0KiB time=00:00:00.03 bitrate=  10.6kbits/s speed=0.0031x elapsed=0:00:10.75    \nframe=    4 fps=0.4 q=51.0 size=       0KiB time=00:00:00.03 bitrate=  10.6kbits/s speed=0.00296x elapsed=0:00:11.27    \nframe=    5 fps=0.4 q=51.0 size=       0KiB time=00:00:00.05 bitrate=   7.0kbits/s speed=0.00424x elapsed=0:00:11.80    \nframe=    5 fps=0.4 q=51.0 size=       0KiB time=00:00:00.05 bitrate=   7.0kbits/s speed=0.00406x elapsed=0:00:12.33    \nframe=    6 fps=0.5 q=44.4 size=       0KiB time=00:00:00.06 bitrate=   5.3kbits/s speed=0.00519x elapsed=0:00:12.83    \nframe=    6 fps=0.4 q=44.4 size=       0KiB time=00:00:00.06 bitrate=   5.3kbits/s speed=0.00499x elapsed=0:00:13.36    \nframe=    7 fps=0.5 q=47.3 size=       0KiB time=00:00:00.08 bitrate=   4.2kbits/s speed=0.00599x elapsed=0:00:13.91    \nframe=    7 fps=0.5 q=47.3 size=       0KiB time=00:00:00.08 bitrate=   4.2kbits/s speed=0.00577x elapsed=0:00:14.45    \nframe=    7 fps=0.5 q=47.3 size=       0KiB time=00:00:00.08 bitrate=   4.2kbits/s speed=0.00556x elapsed=0:00:14.98    \nframe=    7 fps=0.5 q=47.3 size=       0KiB time=00:00:00.08 bitrate=   4.2kbits/s speed=0.00537x elapsed=0:00:15.50    \nframe=    7 fps=0.4 q=47.3 size=       0KiB time=00:00:00.08 bitrate=   4.2kbits/s speed=0.0052x elapsed=0:00:16.03    \nframe=    8 fps=0.5 q=46.7 size=       0KiB time=00:00:00.10 bitrate=   3.5kbits/s speed=0.00603x elapsed=0:00:16.57    \nframe=    9 fps=0.5 q=42.6 size=       0KiB time=00:00:00.10 bitrate=   3.5kbits/s speed=0.00585x elapsed=0:00:17.10    \nframe=    9 fps=0.5 q=42.6 size=       0KiB time=00:00:00.11 bitrate=   3.0kbits/s speed=0.00661x elapsed=0:00:17.64    \nframe=   10 fps=0.6 q=38.9 size=       0KiB time=00:00:00.13 bitrate=   2.6kbits/s speed=0.00734x elapsed=0:00:18.16    \nframe=   11 fps=0.6 q=43.0 size=       0KiB time=00:00:00.15 bitrate=   2.3kbits/s speed=0.00802x elapsed=0:00:18.70    \nframe=   12 fps=0.6 q=42.9 size=       0KiB time=00:00:00.16 bitrate=   2.1kbits/s speed=0.00867x elapsed=0:00:19.22    \nframe=   12 fps=0.6 q=42.9 size=       0KiB time=00:00:00.16 bitrate=   2.1kbits/s speed=0.00844x elapsed=0:00:19.74    \nframe=   12 fps=0.6 q=42.9 size=       0KiB time=00:00:00.16 bitrate=   2.1kbits/s speed=0.00822x elapsed=0:00:20.26    \nframe=   12 fps=0.6 q=42.9 size=       0KiB time=00:00:00.16 bitrate=   2.1kbits/s speed=0.00802x elapsed=0:00:20.77    \nframe=   12 fps=0.6 q=42.9 size=       0KiB time=00:00:00.16 bitrate=   2.1kbits/s speed=0.00783x elapsed=0:00:21.29    \nframe=   12 fps=0.5 q=42.9 size=       0KiB time=00:00:00.16 bitrate=   2.1kbits/s speed=0.00763x elapsed=0:00:21.83    \nframe=   13 fps=0.6 q=43.5 size=       0KiB time=00:00:00.18 bitrate=   1.9kbits/s speed=0.0082x elapsed=0:00:22.37    \nframe=   13 fps=0.6 q=43.5 size=       0KiB time=00:00:00.18 bitrate=   1.9kbits/s speed=0.00801x elapsed=0:00:22.90    \nframe=   14 fps=0.6 q=44.0 size=       0KiB time=00:00:00.20 bitrate=   1.8kbits/s speed=0.00853x elapsed=0:00:23.43    \nframe=   14 fps=0.6 q=44.0 size=       0KiB time=00:00:00.20 bitrate=   1.8kbits/s speed=0.00835x elapsed=0:00:23.94    \nframe=   14 fps=0.6 q=44.0 size=       0KiB time=00:00:00.20 bitrate=   1.8kbits/s speed=0.00817x elapsed=0:00:24.47    \nframe=   15 fps=0.6 q=37.9 size=       0KiB time=00:00:00.21 bitrate=   1.6kbits/s speed=0.00866x elapsed=0:00:25.03    \nframe=   15 fps=0.6 q=37.9 size=       0KiB time=00:00:00.21 bitrate=   1.6kbits/s speed=0.00848x elapsed=0:00:25.54    \nframe=   15 fps=0.6 q=37.9 size=       0KiB time=00:00:00.21 bitrate=   1.6kbits/s speed=0.00831x elapsed=0:00:26.06    \nframe=   16 fps=0.6 q=43.7 size=       0KiB time=00:00:00.23 bitrate=   1.5kbits/s speed=0.00877x elapsed=0:00:26.59    \nframe=   16 fps=0.6 q=43.7 size=       0KiB time=00:00:00.23 bitrate=   1.5kbits/s speed=0.0086x elapsed=0:00:27.11    \nframe=   16 fps=0.6 q=43.7 size=       0KiB time=00:00:00.23 bitrate=   1.5kbits/s speed=0.00843x elapsed=0:00:27.66    \nframe=   16 fps=0.6 q=43.7 size=       0KiB time=00:00:00.23 bitrate=   1.5kbits/s speed=0.00827x elapsed=0:00:28.21    \nframe=   16 fps=0.6 q=43.7 size=       0KiB time=00:00:00.23 bitrate=   1.5kbits/s speed=0.00811x elapsed=0:00:28.76    \nframe=   16 fps=0.5 q=43.7 size=       0KiB time=00:00:00.23 bitrate=   1.5kbits/s speed=0.00796x elapsed=0:00:29.31    \nframe=   16 fps=0.5 q=43.7 size=       0KiB time=00:00:00.23 bitrate=   1.5kbits/s speed=0.00782x elapsed=0:00:29.83    \nframe=   17 fps=0.6 q=44.0 size=       0KiB time=00:00:00.25 bitrate=   1.4kbits/s speed=0.00823x elapsed=0:00:30.39    \nframe=   18 fps=0.6 q=43.0 size=       0KiB time=00:00:00.26 bitrate=   1.3kbits/s speed=0.00862x elapsed=0:00:30.92    \nframe=   19 fps=0.6 q=36.9 size=       0KiB time=00:00:00.28 bitrate=   1.2kbits/s speed=0.00901x elapsed=0:00:31.46    \nframe=   19 fps=0.6 q=36.9 size=       0KiB time=00:00:00.28 bitrate=   1.2kbits/s speed=0.00886x elapsed=0:00:31.98    \nframe=   19 fps=0.6 q=36.9 size=       0KiB time=00:00:00.28 bitrate=   1.2kbits/s speed=0.00871x elapsed=0:00:32.51    \nframe=   19 fps=0.6 q=36.9 size=       0KiB time=00:00:00.28 bitrate=   1.2kbits/s speed=0.00858x elapsed=0:00:33.03    \nframe=   20 fps=0.6 q=42.6 size=       0KiB time=00:00:00.30 bitrate=   1.2kbits/s speed=0.00893x elapsed=0:00:33.57    \nframe=   20 fps=0.6 q=42.6 size=       0KiB time=00:00:00.30 bitrate=   1.2kbits/s speed=0.00879x elapsed=0:00:34.14    \nframe=   20 fps=0.6 q=42.6 size=       0KiB time=00:00:00.30 bitrate=   1.2kbits/s speed=0.00865x elapsed=0:00:34.66    \nframe=   21 fps=0.6 q=42.6 size=       0KiB time=00:00:00.31 bitrate=   1.1kbits/s speed=0.00899x elapsed=0:00:35.21    \nframe=   21 fps=0.6 q=42.6 size=       0KiB time=00:00:00.31 bitrate=   1.1kbits/s speed=0.00886x elapsed=0:00:35.74    \nframe=   21 fps=0.6 q=42.6 size=       0KiB time=00:00:00.31 bitrate=   1.1kbits/s speed=0.00873x elapsed=0:00:36.26    \nframe=   22 fps=0.6 q=36.4 size=       0KiB time=00:00:00.33 bitrate=   1.1kbits/s speed=0.00906x elapsed=0:00:36.79    \nframe=   22 fps=0.6 q=36.4 size=       0KiB time=00:00:00.33 bitrate=   1.1kbits/s speed=0.00893x elapsed=0:00:37.31    \nframe=   22 fps=0.6 q=36.4 size=       0KiB time=00:00:00.33 bitrate=   1.1kbits/s speed=0.0088x elapsed=0:00:37.87    \nframe=   22 fps=0.6 q=36.4 size=       0KiB time=00:00:00.33 bitrate=   1.1kbits/s speed=0.00868x elapsed=0:00:38.39    \nframe=   22 fps=0.6 q=36.4 size=       0KiB time=00:00:00.33 bitrate=   1.1kbits/s speed=0.00857x elapsed=0:00:38.90    \nframe=   22 fps=0.6 q=36.4 size=       0KiB time=00:00:00.33 bitrate=   1.1kbits/s speed=0.00846x elapsed=0:00:39.42    \nframe=   22 fps=0.6 q=36.4 size=       0KiB time=00:00:00.33 bitrate=   1.1kbits/s speed=0.00835x elapsed=0:00:39.93    \nframe=   23 fps=0.6 q=41.7 size=       0KiB time=00:00:00.35 bitrate=   1.0kbits/s speed=0.00865x elapsed=0:00:40.44    \nframe=   24 fps=0.6 q=41.8 size=       0KiB time=00:00:00.36 bitrate=   1.0kbits/s speed=0.00895x elapsed=0:00:40.96    \nframe=   24 fps=0.6 q=41.8 size=       0KiB time=00:00:00.36 bitrate=   1.0kbits/s speed=0.00884x elapsed=0:00:41.49    \nframe=   25 fps=0.6 q=36.1 size=       0KiB time=00:00:00.38 bitrate=   0.9kbits/s speed=0.00912x elapsed=0:00:42.02    \nframe=   25 fps=0.6 q=36.1 size=       0KiB time=00:00:00.38 bitrate=   0.9kbits/s speed=0.00901x elapsed=0:00:42.53    \nframe=   25 fps=0.6 q=36.1 size=       0KiB time=00:00:00.38 bitrate=   0.9kbits/s speed=0.0089x elapsed=0:00:43.07    \nframe=   26 fps=0.6 q=39.0 size=       0KiB time=00:00:00.40 bitrate=   0.9kbits/s speed=0.00917x elapsed=0:00:43.61    \nframe=   26 fps=0.6 q=39.0 size=       0KiB time=00:00:00.40 bitrate=   0.9kbits/s speed=0.00906x elapsed=0:00:44.16    \nframe=   26 fps=0.6 q=39.0 size=       0KiB time=00:00:00.40 bitrate=   0.9kbits/s speed=0.00895x elapsed=0:00:44.70    \nframe=   26 fps=0.6 q=39.0 size=       0KiB time=00:00:00.40 bitrate=   0.9kbits/s speed=0.00884x elapsed=0:00:45.24    \nframe=   27 fps=0.6 q=40.9 size=       0KiB time=00:00:00.41 bitrate=   0.8kbits/s speed=0.0091x elapsed=0:00:45.78    \nframe=   27 fps=0.6 q=40.9 size=       0KiB time=00:00:00.41 bitrate=   0.8kbits/s speed=0.009x elapsed=0:00:46.29    \nframe=   28 fps=0.6 q=40.6 size=       0KiB time=00:00:00.43 bitrate=   0.8kbits/s speed=0.00926x elapsed=0:00:46.81    \nframe=   29 fps=0.6 q=35.3 size=       0KiB time=00:00:00.45 bitrate=   0.8kbits/s speed=0.0095x elapsed=0:00:47.34    \nframe=   30 fps=0.6 q=39.4 size=       0KiB time=00:00:00.46 bitrate=   0.8kbits/s speed=0.00975x elapsed=0:00:47.86    \nframe=   31 fps=0.6 q=38.9 size=       0KiB time=00:00:00.48 bitrate=   0.7kbits/s speed=0.00999x elapsed=0:00:48.37    \nframe=   32 fps=0.7 q=35.2 size=       0KiB time=00:00:00.50 bitrate=   0.7kbits/s speed=0.0102x elapsed=0:00:48.89    \nframe=   33 fps=0.7 q=39.5 size=       0KiB time=00:00:00.51 bitrate=   0.7kbits/s speed=0.0105x elapsed=0:00:49.40    \nframe=   33 fps=0.7 q=39.5 size=       0KiB time=00:00:00.51 bitrate=   0.7kbits/s speed=0.0104x elapsed=0:00:49.91    \nframe=   34 fps=0.7 q=39.4 size=       0KiB time=00:00:00.53 bitrate=   0.7kbits/s speed=0.0106x elapsed=0:00:50.43    \nframe=   35 fps=0.7 q=38.3 size=       0KiB time=00:00:00.55 bitrate=   0.6kbits/s speed=0.0108x elapsed=0:00:50.95    \nframe=   36 fps=0.7 q=34.7 size=       0KiB time=00:00:00.56 bitrate=   0.6kbits/s speed=0.011x elapsed=0:00:51.46    \nframe=   36 fps=0.7 q=34.7 size=       0KiB time=00:00:00.56 bitrate=   0.6kbits/s speed=0.0109x elapsed=0:00:51.98    \nframe=   36 fps=0.7 q=34.7 size=       0KiB time=00:00:00.56 bitrate=   0.6kbits/s speed=0.0108x elapsed=0:00:52.50    \nframe=   38 fps=0.7 q=38.9 size=       0KiB time=00:00:00.60 bitrate=   0.6kbits/s speed=0.0113x elapsed=0:00:53.01    \nframe=   39 fps=0.7 q=34.8 size=       0KiB time=00:00:00.61 bitrate=   0.6kbits/s speed=0.0115x elapsed=0:00:53.53    \nframe=   40 fps=0.7 q=36.5 size=       0KiB time=00:00:00.63 bitrate=   0.6kbits/s speed=0.0117x elapsed=0:00:54.05    \nframe=   40 fps=0.7 q=36.5 size=       0KiB time=00:00:00.63 bitrate=   0.6kbits/s speed=0.0116x elapsed=0:00:54.57    \nframe=   42 fps=0.8 q=37.9 size=       0KiB time=00:00:00.66 bitrate=   0.5kbits/s speed=0.0121x elapsed=0:00:55.09    \nframe=   43 fps=0.8 q=34.6 size=       0KiB time=00:00:00.68 bitrate=   0.5kbits/s speed=0.0123x elapsed=0:00:55.60    \nframe=   43 fps=0.8 q=34.6 size=       0KiB time=00:00:00.68 bitrate=   0.5kbits/s speed=0.0122x elapsed=0:00:56.12    \nframe=   44 fps=0.8 q=34.8 size=       0KiB time=00:00:00.70 bitrate=   0.5kbits/s speed=0.0124x elapsed=0:00:56.64    \nframe=   46 fps=0.8 q=34.9 size=       0KiB time=00:00:00.73 bitrate=   0.5kbits/s speed=0.0128x elapsed=0:00:57.14    \nframe=   46 fps=0.8 q=34.9 size=       0KiB time=00:00:00.73 bitrate=   0.5kbits/s speed=0.0127x elapsed=0:00:57.66    \nframe=   47 fps=0.8 q=35.7 size=       0KiB time=00:00:00.75 bitrate=   0.5kbits/s speed=0.0129x elapsed=0:00:58.19    \nframe=   48 fps=0.8 q=38.4 size=       0KiB time=00:00:00.76 bitrate=   0.5kbits/s speed=0.0131x elapsed=0:00:58.69    \nframe=   50 fps=0.8 q=38.0 size=       0KiB time=00:00:00.80 bitrate=   0.4kbits/s speed=0.0135x elapsed=0:00:59.21    \nframe=   50 fps=0.8 q=38.0 size=       0KiB time=00:00:00.80 bitrate=   0.4kbits/s speed=0.0134x elapsed=0:00:59.72    \nframe=   50 fps=0.8 q=38.0 size=       0KiB time=00:00:00.80 bitrate=   0.4kbits/s speed=0.0133x elapsed=0:01:00.24    \nframe=   51 fps=0.8 q=39.5 size=       0KiB time=00:00:00.81 bitrate=   0.4kbits/s speed=0.0134x elapsed=0:01:00.76    \nframe=   51 fps=0.8 q=39.5 size=       0KiB time=00:00:00.81 bitrate=   0.4kbits/s speed=0.0133x elapsed=0:01:01.27    \nframe=   53 fps=0.9 q=35.1 size=       0KiB time=00:00:00.85 bitrate=   0.4kbits/s speed=0.0138x elapsed=0:01:01.79    \nframe=   54 fps=0.9 q=35.9 size=       0KiB time=00:00:00.86 bitrate=   0.4kbits/s speed=0.0139x elapsed=0:01:02.31    \nframe=   55 fps=0.9 q=41.3 size=       0KiB time=00:00:00.88 bitrate=   0.4kbits/s speed=0.0141x elapsed=0:01:02.81    \nframe=   55 fps=0.9 q=41.3 size=       0KiB time=00:00:00.88 bitrate=   0.4kbits/s speed=0.0139x elapsed=0:01:03.33    \nframe=   56 fps=0.9 q=41.8 size=       0KiB time=00:00:00.90 bitrate=   0.4kbits/s speed=0.0141x elapsed=0:01:03.85    \nframe=   57 fps=0.9 q=41.8 size=       0KiB time=00:00:00.91 bitrate=   0.4kbits/s speed=0.0142x elapsed=0:01:04.36    \nframe=   59 fps=0.9 q=40.4 size=       0KiB time=00:00:00.95 bitrate=   0.4kbits/s speed=0.0146x elapsed=0:01:04.88    \nframe=   60 fps=0.9 q=41.4 size=       0KiB time=00:00:00.96 bitrate=   0.4kbits/s speed=0.0148x elapsed=0:01:05.44    \nframe=   60 fps=0.9 q=41.4 size=       0KiB time=00:00:00.96 bitrate=   0.4kbits/s speed=0.0146x elapsed=0:01:06.03    \nframe=   60 fps=0.9 q=41.4 size=       0KiB time=00:00:00.96 bitrate=   0.4kbits/s speed=0.0145x elapsed=0:01:06.56    \nframe=   60 fps=0.9 q=41.4 size=       0KiB time=00:00:00.96 bitrate=   0.4kbits/s speed=0.0144x elapsed=0:01:07.08    \nframe=   60 fps=0.9 q=41.4 size=       0KiB time=00:00:00.96 bitrate=   0.4kbits/s speed=0.0143x elapsed=0:01:07.61    \nframe=   60 fps=0.9 q=41.4 size=       0KiB time=00:00:00.96 bitrate=   0.4kbits/s speed=0.0142x elapsed=0:01:08.15    \nframe=   60 fps=0.9 q=41.4 size=       0KiB time=00:00:00.96 bitrate=   0.4kbits/s speed=0.0141x elapsed=0:01:08.69    \nframe=   60 fps=0.9 q=41.4 size=       0KiB time=00:00:00.96 bitrate=   0.4kbits/s speed=0.014x elapsed=0:01:09.23    \nframe=   61 fps=0.9 q=42.8 size=       0KiB time=00:00:00.98 bitrate=   0.4kbits/s speed=0.0141x elapsed=0:01:09.75    \nframe=   62 fps=0.9 q=43.0 size=       0KiB time=00:00:01.00 bitrate=   0.4kbits/s speed=0.0142x elapsed=0:01:10.26    \nframe=   63 fps=0.9 q=35.0 size=       0KiB time=00:00:01.01 bitrate=   0.3kbits/s speed=0.0144x elapsed=0:01:10.80    \nframe=   64 fps=0.9 q=41.1 size=       0KiB time=00:00:01.03 bitrate=   0.3kbits/s speed=0.0145x elapsed=0:01:11.35    \nframe=   65 fps=0.9 q=43.0 size=       0KiB time=00:00:01.05 bitrate=   0.3kbits/s speed=0.0146x elapsed=0:01:11.87    \nframe=   66 fps=0.9 q=42.8 size=       0KiB time=00:00:01.06 bitrate=   0.3kbits/s speed=0.0147x elapsed=0:01:12.42    \nframe=   66 fps=0.9 q=42.8 size=       0KiB time=00:00:01.06 bitrate=   0.3kbits/s speed=0.0146x elapsed=0:01:12.94    \nframe=   66 fps=0.9 q=42.8 size=       0KiB time=00:00:01.06 bitrate=   0.3kbits/s speed=0.0145x elapsed=0:01:13.47    \nframe=   66 fps=0.9 q=42.8 size=       0KiB time=00:00:01.06 bitrate=   0.3kbits/s speed=0.0144x elapsed=0:01:13.99    \nframe=   66 fps=0.9 q=42.8 size=       0KiB time=00:00:01.06 bitrate=   0.3kbits/s speed=0.0143x elapsed=0:01:14.51    \nframe=   66 fps=0.9 q=42.8 size=       0KiB time=00:00:01.06 bitrate=   0.3kbits/s speed=0.0142x elapsed=0:01:15.05    \nframe=   67 fps=0.9 q=37.0 size=       0KiB time=00:00:01.08 bitrate=   0.3kbits/s speed=0.0143x elapsed=0:01:15.58    \nframe=   67 fps=0.9 q=37.0 size=       0KiB time=00:00:01.08 bitrate=   0.3kbits/s speed=0.0142x elapsed=0:01:16.12    \nframe=   68 fps=0.9 q=43.8 size=       0KiB time=00:00:01.10 bitrate=   0.3kbits/s speed=0.0144x elapsed=0:01:16.65    \nframe=   68 fps=0.9 q=43.8 size=       0KiB time=00:00:01.10 bitrate=   0.3kbits/s speed=0.0143x elapsed=0:01:17.18    \nframe=   70 fps=0.9 q=41.1 size=       0KiB time=00:00:01.13 bitrate=   0.3kbits/s speed=0.0146x elapsed=0:01:17.70    \nframe=   70 fps=0.9 q=41.1 size=       0KiB time=00:00:01.13 bitrate=   0.3kbits/s speed=0.0145x elapsed=0:01:18.26    \nframe=   70 fps=0.9 q=41.1 size=       0KiB time=00:00:01.13 bitrate=   0.3kbits/s speed=0.0144x elapsed=0:01:18.77    \nframe=   71 fps=0.9 q=42.5 size=       0KiB time=00:00:01.15 bitrate=   0.3kbits/s speed=0.0145x elapsed=0:01:19.30    \nframe=   71 fps=0.9 q=42.5 size=       0KiB time=00:00:01.15 bitrate=   0.3kbits/s speed=0.0144x elapsed=0:01:19.86    \nframe=   72 fps=0.9 q=42.8 size=       0KiB time=00:00:01.16 bitrate=   0.3kbits/s speed=0.0145x elapsed=0:01:20.40    \nframe=   72 fps=0.9 q=42.8 size=       0KiB time=00:00:01.16 bitrate=   0.3kbits/s speed=0.0144x elapsed=0:01:20.92    \nframe=   72 fps=0.9 q=42.8 size=       0KiB time=00:00:01.16 bitrate=   0.3kbits/s speed=0.0143x elapsed=0:01:21.44    \nframe=   72 fps=0.9 q=42.8 size=       0KiB time=00:00:01.16 bitrate=   0.3kbits/s speed=0.0142x elapsed=0:01:21.96    \nframe=   72 fps=0.9 q=42.8 size=       0KiB time=00:00:01.16 bitrate=   0.3kbits/s speed=0.0141x elapsed=0:01:22.48    \nframe=   72 fps=0.9 q=42.8 size=       0KiB time=00:00:01.16 bitrate=   0.3kbits/s speed=0.0141x elapsed=0:01:23.02    \nframe=   72 fps=0.9 q=42.8 size=       0KiB time=00:00:01.16 bitrate=   0.3kbits/s speed=0.014x elapsed=0:01:23.54    \nframe=   72 fps=0.9 q=42.8 size=       0KiB time=00:00:01.16 bitrate=   0.3kbits/s speed=0.0139x elapsed=0:01:24.08    \nframe=   72 fps=0.9 q=42.8 size=       0KiB time=00:00:01.16 bitrate=   0.3kbits/s speed=0.0138x elapsed=0:01:24.60    \nframe=   72 fps=0.8 q=42.8 size=       0KiB time=00:00:01.16 bitrate=   0.3kbits/s speed=0.0137x elapsed=0:01:25.14    \nframe=   73 fps=0.9 q=34.6 size=       0KiB time=00:00:01.18 bitrate=   0.3kbits/s speed=0.0138x elapsed=0:01:25.66    \nframe=   74 fps=0.9 q=43.0 size=       0KiB time=00:00:01.20 bitrate=   0.3kbits/s speed=0.0139x elapsed=0:01:26.19    \nframe=   75 fps=0.9 q=35.3 size=       0KiB time=00:00:01.21 bitrate=   0.3kbits/s speed=0.014x elapsed=0:01:26.72    \nframe=   76 fps=0.9 q=43.8 size=       0KiB time=00:00:01.23 bitrate=   0.3kbits/s speed=0.0141x elapsed=0:01:27.24    \nframe=   77 fps=0.9 q=44.0 size=       0KiB time=00:00:01.25 bitrate=   0.3kbits/s speed=0.0142x elapsed=0:01:27.82    \nframe=   77 fps=0.9 q=44.0 size=       0KiB time=00:00:01.25 bitrate=   0.3kbits/s speed=0.0141x elapsed=0:01:28.34    \nframe=   77 fps=0.9 q=44.0 size=       0KiB time=00:00:01.25 bitrate=   0.3kbits/s speed=0.0141x elapsed=0:01:28.88    \nframe=   77 fps=0.9 q=44.0 size=       0KiB time=00:00:01.25 bitrate=   0.3kbits/s speed=0.014x elapsed=0:01:29.41    \nframe=   78 fps=0.9 q=48.0 size=       0KiB time=00:00:01.26 bitrate=   0.3kbits/s speed=0.0141x elapsed=0:01:29.92    \nframe=   78 fps=0.9 q=48.0 size=       0KiB time=00:00:01.26 bitrate=   0.3kbits/s speed=0.014x elapsed=0:01:30.47    \nframe=   78 fps=0.9 q=48.0 size=       0KiB time=00:00:01.26 bitrate=   0.3kbits/s speed=0.0139x elapsed=0:01:31.00    \nframe=   78 fps=0.9 q=48.0 size=       0KiB time=00:00:01.26 bitrate=   0.3kbits/s speed=0.0138x elapsed=0:01:31.53    \nframe=   78 fps=0.8 q=48.0 size=       0KiB time=00:00:01.26 bitrate=   0.3kbits/s speed=0.0138x elapsed=0:01:32.10    \nframe=   80 fps=0.9 q=41.1 size=       0KiB time=00:00:01.30 bitrate=   0.3kbits/s speed=0.014x elapsed=0:01:32.62    \nframe=   80 fps=0.9 q=41.1 size=       0KiB time=00:00:01.30 bitrate=   0.3kbits/s speed=0.014x elapsed=0:01:33.14    \nframe=   81 fps=0.9 q=48.0 size=       0KiB time=00:00:01.31 bitrate=   0.3kbits/s speed=0.0141x elapsed=0:01:33.69    \nframe=   82 fps=0.9 q=48.0 size=       0KiB time=00:00:01.33 bitrate=   0.3kbits/s speed=0.0142x elapsed=0:01:34.21    \nframe=   82 fps=0.9 q=48.0 size=       0KiB time=00:00:01.33 bitrate=   0.3kbits/s speed=0.0141x elapsed=0:01:34.73    \nframe=   83 fps=0.9 q=49.0 size=       0KiB time=00:00:01.35 bitrate=   0.3kbits/s speed=0.0142x elapsed=0:01:35.26    \nframe=   83 fps=0.9 q=49.0 size=       0KiB time=00:00:01.35 bitrate=   0.3kbits/s speed=0.0141x elapsed=0:01:35.79    \nframe=   83 fps=0.9 q=49.0 size=       0KiB time=00:00:01.35 bitrate=   0.3kbits/s speed=0.014x elapsed=0:01:36.32    \nframe=   83 fps=0.9 q=49.0 size=       0KiB time=00:00:01.35 bitrate=   0.3kbits/s speed=0.0139x elapsed=0:01:36.83    \nframe=   83 fps=0.9 q=49.0 size=       0KiB time=00:00:01.35 bitrate=   0.3kbits/s speed=0.0139x elapsed=0:01:37.35    \nframe=   83 fps=0.8 q=49.0 size=       0KiB time=00:00:01.35 bitrate=   0.3kbits/s speed=0.0138x elapsed=0:01:37.88    \nframe=   84 fps=0.9 q=42.8 size=       0KiB time=00:00:01.36 bitrate=   0.3kbits/s speed=0.0139x elapsed=0:01:38.40    \nframe=   84 fps=0.8 q=42.8 size=       0KiB time=00:00:01.36 bitrate=   0.3kbits/s speed=0.0138x elapsed=0:01:38.95    \nframe=   84 fps=0.8 q=42.8 size=       0KiB time=00:00:01.36 bitrate=   0.3kbits/s speed=0.0137x elapsed=0:01:39.46    \nframe=   84 fps=0.8 q=42.8 size=       0KiB time=00:00:01.36 bitrate=   0.3kbits/s speed=0.0137x elapsed=0:01:40.01    \nframe=   85 fps=0.8 q=48.0 size=       0KiB time=00:00:01.38 bitrate=   0.3kbits/s speed=0.0138x elapsed=0:01:40.55    \nframe=   85 fps=0.8 q=48.0 size=       0KiB time=00:00:01.38 bitrate=   0.3kbits/s speed=0.0137x elapsed=0:01:41.07    \nframe=   85 fps=0.8 q=48.0 size=       0KiB time=00:00:01.38 bitrate=   0.3kbits/s speed=0.0136x elapsed=0:01:41.62    \nframe=   86 fps=0.8 q=40.2 size=       0KiB time=00:00:01.40 bitrate=   0.3kbits/s speed=0.0137x elapsed=0:01:42.16    \nframe=   86 fps=0.8 q=40.2 size=       0KiB time=00:00:01.40 bitrate=   0.3kbits/s speed=0.0136x elapsed=0:01:42.69    \nframe=   86 fps=0.8 q=40.2 size=       0KiB time=00:00:01.40 bitrate=   0.3kbits/s speed=0.0136x elapsed=0:01:43.23    \nframe=   87 fps=0.8 q=46.5 size=       0KiB time=00:00:01.41 bitrate=   0.2kbits/s speed=0.0137x elapsed=0:01:43.74    \nframe=   87 fps=0.8 q=46.5 size=       0KiB time=00:00:01.41 bitrate=   0.2kbits/s speed=0.0136x elapsed=0:01:44.26    \nframe=   88 fps=0.8 q=48.0 size=       0KiB time=00:00:01.43 bitrate=   0.2kbits/s speed=0.0137x elapsed=0:01:44.78    \nframe=   89 fps=0.8 q=48.0 size=       0KiB time=00:00:01.43 bitrate=   0.2kbits/s speed=0.0136x elapsed=0:01:45.31    \nframe=   89 fps=0.8 q=48.0 size=       0KiB time=00:00:01.45 bitrate=   0.2kbits/s speed=0.0137x elapsed=0:01:45.83    \nframe=   89 fps=0.8 q=48.0 size=       0KiB time=00:00:01.45 bitrate=   0.2kbits/s speed=0.0136x elapsed=0:01:46.36    \nframe=   90 fps=0.8 q=39.4 size=       0KiB time=00:00:01.46 bitrate=   0.2kbits/s speed=0.0137x elapsed=0:01:46.88    \nframe=   90 fps=0.8 q=39.4 size=       0KiB time=00:00:01.46 bitrate=   0.2kbits/s speed=0.0137x elapsed=0:01:47.40    \nframe=   90 fps=0.8 q=39.4 size=       0KiB time=00:00:01.46 bitrate=   0.2kbits/s speed=0.0136x elapsed=0:01:47.93    \nframe=   90 fps=0.8 q=39.4 size=       0KiB time=00:00:01.46 bitrate=   0.2kbits/s speed=0.0135x elapsed=0:01:48.45    \nframe=   90 fps=0.8 q=39.4 size=       0KiB time=00:00:01.46 bitrate=   0.2kbits/s speed=0.0135x elapsed=0:01:48.98    \nframe=   90 fps=0.8 q=39.4 size=       0KiB time=00:00:01.46 bitrate=   0.2kbits/s speed=0.0134x elapsed=0:01:49.49    \nframe=   90 fps=0.8 q=39.4 size=       0KiB time=00:00:01.46 bitrate=   0.2kbits/s speed=0.0133x elapsed=0:01:50.01    \nframe=   91 fps=0.8 q=45.0 size=       0KiB time=00:00:01.48 bitrate=   0.2kbits/s speed=0.0134x elapsed=0:01:50.55    \nframe=   91 fps=0.8 q=45.0 size=       0KiB time=00:00:01.48 bitrate=   0.2kbits/s speed=0.0134x elapsed=0:01:51.08    \nframe=   91 fps=0.8 q=45.0 size=       0KiB time=00:00:01.48 bitrate=   0.2kbits/s speed=0.0133x elapsed=0:01:51.63    \nframe=   91 fps=0.8 q=45.0 size=       0KiB time=00:00:01.48 bitrate=   0.2kbits/s speed=0.0132x elapsed=0:01:52.18    \nframe=   91 fps=0.8 q=45.0 size=       0KiB time=00:00:01.48 bitrate=   0.2kbits/s speed=0.0132x elapsed=0:01:52.71    \nframe=   91 fps=0.8 q=45.0 size=       0KiB time=00:00:01.48 bitrate=   0.2kbits/s speed=0.0131x elapsed=0:01:53.26    \nframe=   91 fps=0.8 q=45.0 size=       0KiB time=00:00:01.48 bitrate=   0.2kbits/s speed=0.013x elapsed=0:01:53.81    \nframe=   92 fps=0.8 q=47.0 size=       0KiB time=00:00:01.50 bitrate=   0.2kbits/s speed=0.0131x elapsed=0:01:54.35    \nframe=   92 fps=0.8 q=47.0 size=       0KiB time=00:00:01.50 bitrate=   0.2kbits/s speed=0.0131x elapsed=0:01:54.87    \nframe=   93 fps=0.8 q=38.1 size=       0KiB time=00:00:01.51 bitrate=   0.2kbits/s speed=0.0131x elapsed=0:01:55.38    \nframe=   94 fps=0.8 q=43.8 size=       0KiB time=00:00:01.53 bitrate=   0.2kbits/s speed=0.0132x elapsed=0:01:55.91    \nframe=   96 fps=0.8 q=46.0 size=       0KiB time=00:00:01.56 bitrate=   0.2kbits/s speed=0.0135x elapsed=0:01:56.43    \nframe=   96 fps=0.8 q=46.0 size=       0KiB time=00:00:01.56 bitrate=   0.2kbits/s speed=0.0134x elapsed=0:01:56.94    \nframe=   96 fps=0.8 q=46.0 size=       0KiB time=00:00:01.56 bitrate=   0.2kbits/s speed=0.0133x elapsed=0:01:57.46    \nframe=   97 fps=0.8 q=43.5 size=       0KiB time=00:00:01.58 bitrate=   0.2kbits/s speed=0.0134x elapsed=0:01:57.97    \nframe=   98 fps=0.8 q=46.0 size=       0KiB time=00:00:01.60 bitrate=   0.2kbits/s speed=0.0135x elapsed=0:01:58.49    \nframe=  100 fps=0.8 q=44.2 size=       0KiB time=00:00:01.63 bitrate=   0.2kbits/s speed=0.0137x elapsed=0:01:59.01    \nframe=  100 fps=0.8 q=44.2 size=       0KiB time=00:00:01.63 bitrate=   0.2kbits/s speed=0.0137x elapsed=0:01:59.52    \nframe=  100 fps=0.8 q=44.2 size=       0KiB time=00:00:01.63 bitrate=   0.2kbits/s speed=0.0136x elapsed=0:02:00.04    \nframe=  101 fps=0.8 q=45.8 size=       0KiB time=00:00:01.65 bitrate=   0.2kbits/s speed=0.0137x elapsed=0:02:00.56    \nframe=  101 fps=0.8 q=45.8 size=       0KiB time=00:00:01.65 bitrate=   0.2kbits/s speed=0.0136x elapsed=0:02:01.08    \nframe=  103 fps=0.8 q=38.2 size=       0KiB time=00:00:01.68 bitrate=   0.2kbits/s speed=0.0138x elapsed=0:02:01.58    \nframe=  104 fps=0.9 q=40.7 size=       0KiB time=00:00:01.70 bitrate=   0.2kbits/s speed=0.0139x elapsed=0:02:02.10    \nframe=  105 fps=0.9 q=45.9 size=       0KiB time=00:00:01.71 bitrate=   0.2kbits/s speed=0.014x elapsed=0:02:02.61    \nframe=  106 fps=0.9 q=46.0 size=       0KiB time=00:00:01.73 bitrate=   0.2kbits/s speed=0.0141x elapsed=0:02:03.13    \nframe=  107 fps=0.9 q=44.8 size=       0KiB time=00:00:01.75 bitrate=   0.2kbits/s speed=0.0142x elapsed=0:02:03.65    \nframe=  109 fps=0.9 q=43.6 size=       0KiB time=00:00:01.78 bitrate=   0.2kbits/s speed=0.0144x elapsed=0:02:04.16    \nframe=  109 fps=0.9 q=43.6 size=       0KiB time=00:00:01.78 bitrate=   0.2kbits/s speed=0.0143x elapsed=0:02:04.68    \nframe=  109 fps=0.9 q=43.6 size=       0KiB time=00:00:01.78 bitrate=   0.2kbits/s speed=0.0142x elapsed=0:02:05.20    \nframe=  110 fps=0.9 q=45.0 size=       0KiB time=00:00:01.80 bitrate=   0.2kbits/s speed=0.0143x elapsed=0:02:05.71    \nframe=  110 fps=0.9 q=45.0 size=       0KiB time=00:00:01.80 bitrate=   0.2kbits/s speed=0.0143x elapsed=0:02:06.23    \nframe=  112 fps=0.9 q=38.0 size=       0KiB time=00:00:01.83 bitrate=   0.2kbits/s speed=0.0145x elapsed=0:02:06.75    \nframe=  114 fps=0.9 q=44.6 size=       0KiB time=00:00:01.86 bitrate=   0.2kbits/s speed=0.0147x elapsed=0:02:07.26    \nframe=  114 fps=0.9 q=44.6 size=       0KiB time=00:00:01.86 bitrate=   0.2kbits/s speed=0.0146x elapsed=0:02:07.78    \nframe=  115 fps=0.9 q=44.8 size=       0KiB time=00:00:01.88 bitrate=   0.2kbits/s speed=0.0147x elapsed=0:02:08.28    \nframe=  116 fps=0.9 q=45.0 size=       0KiB time=00:00:01.90 bitrate=   0.2kbits/s speed=0.0148x elapsed=0:02:08.80    \nframe=  118 fps=0.9 q=42.3 size=       0KiB time=00:00:01.93 bitrate=   0.2kbits/s speed=0.0149x elapsed=0:02:09.32    \nframe=  119 fps=0.9 q=45.0 size=       0KiB time=00:00:01.95 bitrate=   0.2kbits/s speed=0.015x elapsed=0:02:09.83    \nframe=  121 fps=0.9 q=37.4 size=       0KiB time=00:00:01.98 bitrate=   0.2kbits/s speed=0.0152x elapsed=0:02:10.35    \nframe=  122 fps=0.9 q=44.8 size=       0KiB time=00:00:02.00 bitrate=   0.2kbits/s speed=0.0153x elapsed=0:02:10.87    \nframe=  123 fps=0.9 q=37.0 size=       0KiB time=00:00:02.01 bitrate=   0.2kbits/s speed=0.0153x elapsed=0:02:11.38    \nframe=  124 fps=0.9 q=40.2 size=       0KiB time=00:00:02.03 bitrate=   0.2kbits/s speed=0.0154x elapsed=0:02:11.90    \nframe=  126 fps=1.0 q=43.6 size=       0KiB time=00:00:02.06 bitrate=   0.2kbits/s speed=0.0156x elapsed=0:02:12.42    \nframe=  127 fps=1.0 q=36.7 size=       0KiB time=00:00:02.08 bitrate=   0.2kbits/s speed=0.0157x elapsed=0:02:12.94    \nframe=  129 fps=1.0 q=42.5 size=     256KiB time=00:00:02.11 bitrate= 990.9kbits/s speed=0.0159x elapsed=0:02:13.46    \nframe=  129 fps=1.0 q=42.5 size=     256KiB time=00:00:02.11 bitrate= 990.9kbits/s speed=0.0158x elapsed=0:02:13.98    \nframe=  131 fps=1.0 q=42.5 size=     256KiB time=00:00:02.15 bitrate= 975.6kbits/s speed=0.016x elapsed=0:02:14.49    \nframe=  132 fps=1.0 q=36.2 size=     256KiB time=00:00:02.16 bitrate= 968.1kbits/s speed=0.016x elapsed=0:02:15.00    \nframe=  133 fps=1.0 q=40.4 size=     256KiB time=00:00:02.18 bitrate= 960.7kbits/s speed=0.0161x elapsed=0:02:15.53    \nframe=  134 fps=1.0 q=42.0 size=     256KiB time=00:00:02.20 bitrate= 953.4kbits/s speed=0.0162x elapsed=0:02:16.05    \nframe=  135 fps=1.0 q=41.8 size=     256KiB time=00:00:02.21 bitrate= 946.2kbits/s speed=0.0162x elapsed=0:02:16.55    \nframe=  137 fps=1.0 q=38.5 size=     256KiB time=00:00:02.25 bitrate= 932.2kbits/s speed=0.0164x elapsed=0:02:17.07    \nframe=  138 fps=1.0 q=41.2 size=     256KiB time=00:00:02.26 bitrate= 925.4kbits/s speed=0.0165x elapsed=0:02:17.59    \nframe=  138 fps=1.0 q=41.2 size=     256KiB time=00:00:02.26 bitrate= 925.4kbits/s speed=0.0164x elapsed=0:02:18.10    \nframe=  139 fps=1.0 q=40.1 size=     256KiB time=00:00:02.28 bitrate= 918.6kbits/s speed=0.0165x elapsed=0:02:18.62    \nframe=  141 fps=1.0 q=36.0 size=     256KiB time=00:00:02.31 bitrate= 905.4kbits/s speed=0.0166x elapsed=0:02:19.14    \nframe=  142 fps=1.0 q=39.7 size=     256KiB time=00:00:02.33 bitrate= 898.9kbits/s speed=0.0167x elapsed=0:02:19.64    \nframe=  143 fps=1.0 q=42.0 size=     256KiB time=00:00:02.35 bitrate= 892.6kbits/s speed=0.0168x elapsed=0:02:20.17    \nframe=  144 fps=1.0 q=40.9 size=     256KiB time=00:00:02.36 bitrate= 886.3kbits/s speed=0.0168x elapsed=0:02:20.70    \nframe=  146 fps=1.0 q=38.0 size=     256KiB time=00:00:02.40 bitrate= 874.0kbits/s speed=0.017x elapsed=0:02:21.21    \nframe=  147 fps=1.0 q=40.8 size=     256KiB time=00:00:02.41 bitrate= 867.9kbits/s speed=0.0171x elapsed=0:02:21.73    \nframe=  148 fps=1.0 q=40.8 size=     256KiB time=00:00:02.43 bitrate= 862.0kbits/s speed=0.0171x elapsed=0:02:22.24    \nframe=  149 fps=1.0 q=35.0 size=     256KiB time=00:00:02.45 bitrate= 856.1kbits/s speed=0.0172x elapsed=0:02:22.76    \nframe=  149 fps=1.0 q=35.0 size=     256KiB time=00:00:02.45 bitrate= 856.1kbits/s speed=0.0171x elapsed=0:02:23.28    \nframe=  150 fps=1.0 q=37.0 size=     256KiB time=00:00:02.46 bitrate= 850.3kbits/s speed=0.0171x elapsed=0:02:23.84    \nframe=  150 fps=1.0 q=37.0 size=     256KiB time=00:00:02.46 bitrate= 850.3kbits/s speed=0.0171x elapsed=0:02:24.38    \nframe=  151 fps=1.0 q=40.6 size=     256KiB time=00:00:02.48 bitrate= 844.6kbits/s speed=0.0171x elapsed=0:02:24.92    \nframe=  152 fps=1.0 q=34.7 size=     256KiB time=00:00:02.50 bitrate= 839.0kbits/s speed=0.0172x elapsed=0:02:25.44    \nframe=  152 fps=1.0 q=34.7 size=     256KiB time=00:00:02.50 bitrate= 839.0kbits/s speed=0.0171x elapsed=0:02:25.98    \nframe=  152 fps=1.0 q=34.7 size=     256KiB time=00:00:02.50 bitrate= 839.0kbits/s speed=0.0171x elapsed=0:02:26.51    \nframe=  153 fps=1.0 q=37.1 size=     256KiB time=00:00:02.51 bitrate= 833.4kbits/s speed=0.0171x elapsed=0:02:27.04    \nframe=  153 fps=1.0 q=37.1 size=     256KiB time=00:00:02.51 bitrate= 833.4kbits/s speed=0.0171x elapsed=0:02:27.57    \nframe=  153 fps=1.0 q=37.1 size=     256KiB time=00:00:02.51 bitrate= 833.4kbits/s speed=0.017x elapsed=0:02:28.09    \nframe=  153 fps=1.0 q=37.1 size=     256KiB time=00:00:02.51 bitrate= 833.4kbits/s speed=0.0169x elapsed=0:02:28.64    \nframe=  154 fps=1.0 q=41.0 size=     256KiB time=00:00:02.53 bitrate= 828.0kbits/s speed=0.017x elapsed=0:02:29.16    \nframe=  154 fps=1.0 q=41.0 size=     256KiB time=00:00:02.53 bitrate= 828.0kbits/s speed=0.0169x elapsed=0:02:29.68    \nframe=  155 fps=1.0 q=40.6 size=     256KiB time=00:00:02.55 bitrate= 822.6kbits/s speed=0.017x elapsed=0:02:30.21    \nframe=  155 fps=1.0 q=40.6 size=     256KiB time=00:00:02.55 bitrate= 822.6kbits/s speed=0.0169x elapsed=0:02:30.73    \nframe=  156 fps=1.0 q=34.4 size=     256KiB time=00:00:02.56 bitrate= 817.2kbits/s speed=0.017x elapsed=0:02:31.26    \nframe=  157 fps=1.0 q=37.1 size=     256KiB time=00:00:02.58 bitrate= 811.9kbits/s speed=0.017x elapsed=0:02:31.79    \nframe=  157 fps=1.0 q=37.1 size=     256KiB time=00:00:02.58 bitrate= 811.9kbits/s speed=0.017x elapsed=0:02:32.32    \nframe=  157 fps=1.0 q=37.1 size=     256KiB time=00:00:02.58 bitrate= 811.9kbits/s speed=0.0169x elapsed=0:02:32.83    \nframe=  158 fps=1.0 q=39.8 size=     256KiB time=00:00:02.60 bitrate= 806.7kbits/s speed=0.017x elapsed=0:02:33.38    \nframe=  159 fps=1.0 q=40.8 size=     256KiB time=00:00:02.61 bitrate= 801.6kbits/s speed=0.017x elapsed=0:02:33.92    \nframe=  161 fps=1.0 q=37.2 size=     256KiB time=00:00:02.65 bitrate= 791.5kbits/s speed=0.0172x elapsed=0:02:34.46    \nframe=  161 fps=1.0 q=37.2 size=     256KiB time=00:00:02.65 bitrate= 791.5kbits/s speed=0.0171x elapsed=0:02:34.99    \nframe=  161 fps=1.0 q=37.2 size=     256KiB time=00:00:02.65 bitrate= 791.5kbits/s speed=0.017x elapsed=0:02:35.50    \nframe=  161 fps=1.0 q=37.2 size=     256KiB time=00:00:02.65 bitrate= 791.5kbits/s speed=0.017x elapsed=0:02:36.04    \nframe=  161 fps=1.0 q=37.2 size=     256KiB time=00:00:02.65 bitrate= 791.5kbits/s speed=0.0169x elapsed=0:02:36.56    \nframe=  161 fps=1.0 q=37.2 size=     256KiB time=00:00:02.65 bitrate= 791.5kbits/s speed=0.0169x elapsed=0:02:37.07    \nframe=  161 fps=1.0 q=37.2 size=     256KiB time=00:00:02.65 bitrate= 791.5kbits/s speed=0.0168x elapsed=0:02:37.59    \nframe=  163 fps=1.0 q=39.6 size=     256KiB time=00:00:02.68 bitrate= 781.7kbits/s speed=0.017x elapsed=0:02:38.12    \nframe=  164 fps=1.0 q=33.8 size=     256KiB time=00:00:02.70 bitrate= 776.9kbits/s speed=0.017x elapsed=0:02:38.65    \nframe=  164 fps=1.0 q=33.8 size=     256KiB time=00:00:02.70 bitrate= 776.9kbits/s speed=0.017x elapsed=0:02:39.17    \nframe=  164 fps=1.0 q=33.8 size=     256KiB time=00:00:02.70 bitrate= 776.9kbits/s speed=0.0169x elapsed=0:02:39.68    \nframe=  164 fps=1.0 q=33.8 size=     256KiB time=00:00:02.70 bitrate= 776.9kbits/s speed=0.0169x elapsed=0:02:40.20    \nframe=  165 fps=1.0 q=36.8 size=     256KiB time=00:00:02.71 bitrate= 772.1kbits/s speed=0.0169x elapsed=0:02:40.72    \nframe=  166 fps=1.0 q=39.4 size=     256KiB time=00:00:02.73 bitrate= 767.4kbits/s speed=0.017x elapsed=0:02:41.25    \nframe=  166 fps=1.0 q=39.4 size=     256KiB time=00:00:02.73 bitrate= 767.4kbits/s speed=0.0169x elapsed=0:02:41.78    \nframe=  167 fps=1.0 q=33.6 size=     256KiB time=00:00:02.75 bitrate= 762.7kbits/s speed=0.0169x elapsed=0:02:42.30    \nframe=  167 fps=1.0 q=33.6 size=     256KiB time=00:00:02.75 bitrate= 762.7kbits/s speed=0.0169x elapsed=0:02:42.82    \nframe=  168 fps=1.0 q=36.3 size=     256KiB time=00:00:02.76 bitrate= 758.1kbits/s speed=0.0169x elapsed=0:02:43.33    \nframe=  168 fps=1.0 q=36.3 size=     256KiB time=00:00:02.76 bitrate= 758.1kbits/s speed=0.0169x elapsed=0:02:43.85    \nframe=  168 fps=1.0 q=36.3 size=     256KiB time=00:00:02.76 bitrate= 758.1kbits/s speed=0.0168x elapsed=0:02:44.38    \nframe=  169 fps=1.0 q=38.2 size=     256KiB time=00:00:02.78 bitrate= 753.6kbits/s speed=0.0169x elapsed=0:02:44.90    \nframe=  169 fps=1.0 q=38.2 size=     256KiB time=00:00:02.78 bitrate= 753.6kbits/s speed=0.0168x elapsed=0:02:45.42    \nframe=  170 fps=1.0 q=38.2 size=     256KiB time=00:00:02.80 bitrate= 749.1kbits/s speed=0.0169x elapsed=0:02:45.94    \nframe=  171 fps=1.0 q=32.7 size=     256KiB time=00:00:02.81 bitrate= 744.7kbits/s speed=0.0169x elapsed=0:02:46.46    \nframe=  171 fps=1.0 q=32.7 size=     256KiB time=00:00:02.81 bitrate= 744.7kbits/s speed=0.0169x elapsed=0:02:46.99    \nframe=  171 fps=1.0 q=32.7 size=     256KiB time=00:00:02.81 bitrate= 744.7kbits/s speed=0.0168x elapsed=0:02:47.56    \nframe=  172 fps=1.0 q=35.3 size=     256KiB time=00:00:02.83 bitrate= 740.3kbits/s speed=0.0169x elapsed=0:02:48.11    \nframe=  172 fps=1.0 q=35.3 size=     256KiB time=00:00:02.83 bitrate= 740.3kbits/s speed=0.0168x elapsed=0:02:48.63    \nframe=  172 fps=1.0 q=35.3 size=     256KiB time=00:00:02.83 bitrate= 740.3kbits/s speed=0.0167x elapsed=0:02:49.15    \nframe=  173 fps=1.0 q=38.8 size=     256KiB time=00:00:02.85 bitrate= 736.0kbits/s speed=0.0168x elapsed=0:02:49.66    \nframe=  173 fps=1.0 q=38.8 size=     256KiB time=00:00:02.85 bitrate= 736.0kbits/s speed=0.0167x elapsed=0:02:50.19    \nframe=  173 fps=1.0 q=38.8 size=     256KiB time=00:00:02.85 bitrate= 736.0kbits/s speed=0.0167x elapsed=0:02:50.74    \nframe=  174 fps=1.0 q=38.6 size=     256KiB time=00:00:02.86 bitrate= 731.7kbits/s speed=0.0167x elapsed=0:02:51.26    \nframe=  174 fps=1.0 q=38.6 size=     256KiB time=00:00:02.86 bitrate= 731.7kbits/s speed=0.0167x elapsed=0:02:51.77    \nframe=  174 fps=1.0 q=38.6 size=     256KiB time=00:00:02.86 bitrate= 731.7kbits/s speed=0.0166x elapsed=0:02:52.29    \nframe=  175 fps=1.0 q=32.2 size=     256KiB time=00:00:02.88 bitrate= 727.5kbits/s speed=0.0167x elapsed=0:02:52.83    \nframe=  176 fps=1.0 q=36.3 size=     256KiB time=00:00:02.90 bitrate= 723.3kbits/s speed=0.0167x elapsed=0:02:53.33    \nframe=  176 fps=1.0 q=36.3 size=     256KiB time=00:00:02.90 bitrate= 723.3kbits/s speed=0.0167x elapsed=0:02:53.86    \nframe=  176 fps=1.0 q=36.3 size=     256KiB time=00:00:02.90 bitrate= 723.3kbits/s speed=0.0166x elapsed=0:02:54.41    \nframe=  176 fps=1.0 q=36.3 size=     256KiB time=00:00:02.90 bitrate= 723.3kbits/s speed=0.0166x elapsed=0:02:54.93    \nframe=  177 fps=1.0 q=38.4 size=     256KiB time=00:00:02.91 bitrate= 719.1kbits/s speed=0.0166x elapsed=0:02:55.45    \nframe=  177 fps=1.0 q=38.4 size=     256KiB time=00:00:02.91 bitrate= 719.1kbits/s speed=0.0166x elapsed=0:02:56.01    \nframe=  178 fps=1.0 q=38.8 size=     256KiB time=00:00:02.93 bitrate= 715.1kbits/s speed=0.0166x elapsed=0:02:56.55    \nframe=  178 fps=1.0 q=38.8 size=     256KiB time=00:00:02.93 bitrate= 715.1kbits/s speed=0.0166x elapsed=0:02:57.07    \nframe=  178 fps=1.0 q=38.8 size=     256KiB time=00:00:02.93 bitrate= 715.1kbits/s speed=0.0165x elapsed=0:02:57.62    \nframe=  179 fps=1.0 q=32.6 size=     256KiB time=00:00:02.95 bitrate= 711.0kbits/s speed=0.0166x elapsed=0:02:58.17    \nframe=  179 fps=1.0 q=32.6 size=     256KiB time=00:00:02.95 bitrate= 711.0kbits/s speed=0.0165x elapsed=0:02:58.70    \nframe=  179 fps=1.0 q=32.6 size=     256KiB time=00:00:02.95 bitrate= 711.0kbits/s speed=0.0165x elapsed=0:02:59.27    \nframe=  181 fps=1.0 q=37.8 size=     256KiB time=00:00:02.98 bitrate= 703.1kbits/s speed=0.0166x elapsed=0:02:59.80    \nframe=  181 fps=1.0 q=37.8 size=     256KiB time=00:00:02.98 bitrate= 703.1kbits/s speed=0.0165x elapsed=0:03:00.33    \nframe=  181 fps=1.0 q=37.8 size=     256KiB time=00:00:02.98 bitrate= 703.1kbits/s speed=0.0165x elapsed=0:03:00.86    \nframe=  181 fps=1.0 q=37.8 size=     256KiB time=00:00:02.98 bitrate= 703.1kbits/s speed=0.0164x elapsed=0:03:01.41    \nframe=  181 fps=1.0 q=37.8 size=     256KiB time=00:00:02.98 bitrate= 703.1kbits/s speed=0.0164x elapsed=0:03:01.96    \nframe=  181 fps=1.0 q=37.8 size=     256KiB time=00:00:02.98 bitrate= 703.1kbits/s speed=0.0163x elapsed=0:03:02.50    \nframe=  181 fps=1.0 q=37.8 size=     256KiB time=00:00:02.98 bitrate= 703.1kbits/s speed=0.0163x elapsed=0:03:03.06    \nframe=  181 fps=1.0 q=37.8 size=     256KiB time=00:00:02.98 bitrate= 703.1kbits/s speed=0.0162x elapsed=0:03:03.62    \nframe=  182 fps=1.0 q=38.2 size=     256KiB time=00:00:03.00 bitrate= 699.2kbits/s speed=0.0163x elapsed=0:03:04.14    \nframe=  182 fps=1.0 q=38.2 size=     256KiB time=00:00:03.00 bitrate= 699.2kbits/s speed=0.0162x elapsed=0:03:04.69    \nframe=  183 fps=1.0 q=38.8 size=     256KiB time=00:00:03.01 bitrate= 695.3kbits/s speed=0.0163x elapsed=0:03:05.20    \nframe=  183 fps=1.0 q=38.8 size=     256KiB time=00:00:03.01 bitrate= 695.3kbits/s speed=0.0162x elapsed=0:03:05.73    \nframe=  183 fps=1.0 q=38.8 size=     256KiB time=00:00:03.01 bitrate= 695.3kbits/s speed=0.0162x elapsed=0:03:06.26    \nframe=  184 fps=1.0 q=33.7 size=     256KiB time=00:00:03.03 bitrate= 691.5kbits/s speed=0.0162x elapsed=0:03:06.78    \nframe=  185 fps=1.0 q=35.0 size=     256KiB time=00:00:03.05 bitrate= 687.7kbits/s speed=0.0163x elapsed=0:03:07.30    \nframe=  185 fps=1.0 q=35.0 size=     256KiB time=00:00:03.05 bitrate= 687.7kbits/s speed=0.0162x elapsed=0:03:07.84    \nframe=  185 fps=1.0 q=35.0 size=     256KiB time=00:00:03.05 bitrate= 687.7kbits/s speed=0.0162x elapsed=0:03:08.39    \nframe=  185 fps=1.0 q=35.0 size=     256KiB time=00:00:03.05 bitrate= 687.7kbits/s speed=0.0161x elapsed=0:03:08.91    \nframe=  186 fps=1.0 q=38.8 size=     256KiB time=00:00:03.06 bitrate= 684.0kbits/s speed=0.0162x elapsed=0:03:09.42    \nframe=  186 fps=1.0 q=38.8 size=     256KiB time=00:00:03.06 bitrate= 684.0kbits/s speed=0.0161x elapsed=0:03:09.95    \nframe=  187 fps=1.0 q=38.3 size=     256KiB time=00:00:03.08 bitrate= 680.3kbits/s speed=0.0162x elapsed=0:03:10.46    \nframe=  187 fps=1.0 q=38.3 size=     256KiB time=00:00:03.08 bitrate= 680.3kbits/s speed=0.0161x elapsed=0:03:10.97    \nframe=  188 fps=1.0 q=34.2 size=     256KiB time=00:00:03.10 bitrate= 676.6kbits/s speed=0.0162x elapsed=0:03:11.49    \nframe=  189 fps=1.0 q=33.7 size=     256KiB time=00:00:03.11 bitrate= 673.0kbits/s speed=0.0162x elapsed=0:03:12.01    \nframe=  189 fps=1.0 q=33.7 size=     256KiB time=00:00:03.11 bitrate= 673.0kbits/s speed=0.0162x elapsed=0:03:12.52    \nframe=  190 fps=1.0 q=39.8 size=     256KiB time=00:00:03.13 bitrate= 669.4kbits/s speed=0.0162x elapsed=0:03:13.05    \nframe=  190 fps=1.0 q=39.8 size=     256KiB time=00:00:03.13 bitrate= 669.4kbits/s speed=0.0162x elapsed=0:03:13.58    \nframe=  190 fps=1.0 q=39.8 size=     256KiB time=00:00:03.13 bitrate= 669.4kbits/s speed=0.0161x elapsed=0:03:14.10    \nframe=  190 fps=1.0 q=39.8 size=     256KiB time=00:00:03.13 bitrate= 669.4kbits/s speed=0.0161x elapsed=0:03:14.64    \nframe=  191 fps=1.0 q=38.1 size=     256KiB time=00:00:03.15 bitrate= 665.9kbits/s speed=0.0161x elapsed=0:03:15.19    \nframe=  191 fps=1.0 q=38.1 size=     256KiB time=00:00:03.15 bitrate= 665.9kbits/s speed=0.0161x elapsed=0:03:15.76    \nframe=  191 fps=1.0 q=38.1 size=     256KiB time=00:00:03.15 bitrate= 665.9kbits/s speed=0.016x elapsed=0:03:16.29    \nframe=  191 fps=1.0 q=38.1 size=     256KiB time=00:00:03.15 bitrate= 665.9kbits/s speed=0.016x elapsed=0:03:16.86    \nframe=  191 fps=1.0 q=38.1 size=     256KiB time=00:00:03.15 bitrate= 665.9kbits/s speed=0.016x elapsed=0:03:17.38    \nframe=  192 fps=1.0 q=41.0 size=     256KiB time=00:00:03.16 bitrate= 662.4kbits/s speed=0.016x elapsed=0:03:17.90    \nframe=  193 fps=1.0 q=34.8 size=     256KiB time=00:00:03.18 bitrate= 658.9kbits/s speed=0.016x elapsed=0:03:18.43    \nframe=  194 fps=1.0 q=34.8 size=     256KiB time=00:00:03.20 bitrate= 655.5kbits/s speed=0.0161x elapsed=0:03:18.94    \nframe=  195 fps=1.0 q=41.0 size=     256KiB time=00:00:03.21 bitrate= 652.1kbits/s speed=0.0161x elapsed=0:03:19.46    \nframe=  196 fps=1.0 q=40.5 size=     256KiB time=00:00:03.23 bitrate= 648.7kbits/s speed=0.0162x elapsed=0:03:19.97    \nframe=  197 fps=1.0 q=42.0 size=     256KiB time=00:00:03.25 bitrate= 645.4kbits/s speed=0.0162x elapsed=0:03:20.49    \nframe=  198 fps=1.0 q=35.4 size=     256KiB time=00:00:03.26 bitrate= 642.1kbits/s speed=0.0163x elapsed=0:03:21.00    \nframe=  199 fps=1.0 q=36.2 size=     256KiB time=00:00:03.28 bitrate= 638.8kbits/s speed=0.0163x elapsed=0:03:21.52    \nframe=  200 fps=1.0 q=41.7 size=     256KiB time=00:00:03.30 bitrate= 635.6kbits/s speed=0.0163x elapsed=0:03:22.04    \nframe=  201 fps=1.0 q=40.4 size=     256KiB time=00:00:03.31 bitrate= 632.4kbits/s speed=0.0164x elapsed=0:03:22.56    \nframe=  201 fps=1.0 q=40.4 size=     256KiB time=00:00:03.31 bitrate= 632.4kbits/s speed=0.0163x elapsed=0:03:23.08    \nframe=  202 fps=1.0 q=41.8 size=     256KiB time=00:00:03.33 bitrate= 629.3kbits/s speed=0.0164x elapsed=0:03:23.59    \nframe=  204 fps=1.0 q=39.6 size=     256KiB time=00:00:03.36 bitrate= 623.0kbits/s speed=0.0165x elapsed=0:03:24.10    \nframe=  205 fps=1.0 q=41.7 size=     256KiB time=00:00:03.38 bitrate= 620.0kbits/s speed=0.0165x elapsed=0:03:24.61    \nframe=  205 fps=1.0 q=41.7 size=     256KiB time=00:00:03.38 bitrate= 620.0kbits/s speed=0.0165x elapsed=0:03:25.13    \nframe=  206 fps=1.0 q=41.8 size=     256KiB time=00:00:03.40 bitrate= 616.9kbits/s speed=0.0165x elapsed=0:03:25.65    \nframe=  207 fps=1.0 q=41.6 size=     256KiB time=00:00:03.41 bitrate= 613.9kbits/s speed=0.0166x elapsed=0:03:26.16    \nframe=  207 fps=1.0 q=41.6 size=     256KiB time=00:00:03.41 bitrate= 613.9kbits/s speed=0.0165x elapsed=0:03:26.68    \nframe=  208 fps=1.0 q=35.9 size=     256KiB time=00:00:03.43 bitrate= 610.9kbits/s speed=0.0166x elapsed=0:03:27.20    \nframe=  209 fps=1.0 q=37.4 size=     256KiB time=00:00:03.45 bitrate= 608.0kbits/s speed=0.0166x elapsed=0:03:27.70    \nframe=  209 fps=1.0 q=37.4 size=     256KiB time=00:00:03.45 bitrate= 608.0kbits/s speed=0.0166x elapsed=0:03:28.22    \nframe=  210 fps=1.0 q=41.9 size=     256KiB time=00:00:03.46 bitrate= 605.0kbits/s speed=0.0166x elapsed=0:03:28.74    \nframe=  211 fps=1.0 q=41.9 size=     256KiB time=00:00:03.48 bitrate= 602.2kbits/s speed=0.0166x elapsed=0:03:29.26    \nframe=  212 fps=1.0 q=35.7 size=     256KiB time=00:00:03.50 bitrate= 599.3kbits/s speed=0.0167x elapsed=0:03:29.77    \nframe=  214 fps=1.0 q=41.9 size=     256KiB time=00:00:03.53 bitrate= 593.6kbits/s speed=0.0168x elapsed=0:03:30.29    \nframe=  214 fps=1.0 q=41.9 size=     256KiB time=00:00:03.53 bitrate= 593.6kbits/s speed=0.0168x elapsed=0:03:30.81    \nframe=  215 fps=1.0 q=42.0 size=     256KiB time=00:00:03.55 bitrate= 590.8kbits/s speed=0.0168x elapsed=0:03:31.33    \nframe=  216 fps=1.0 q=42.0 size=     256KiB time=00:00:03.56 bitrate= 588.1kbits/s speed=0.0168x elapsed=0:03:31.83    \nframe=  217 fps=1.0 q=36.0 size=     256KiB time=00:00:03.58 bitrate= 585.4kbits/s speed=0.0169x elapsed=0:03:32.35    \nframe=  218 fps=1.0 q=42.5 size=     256KiB time=00:00:03.60 bitrate= 582.6kbits/s speed=0.0169x elapsed=0:03:32.88    \nframe=  218 fps=1.0 q=42.5 size=     256KiB time=00:00:03.60 bitrate= 582.6kbits/s speed=0.0169x elapsed=0:03:33.40    \nframe=  219 fps=1.0 q=43.0 size=     256KiB time=00:00:03.61 bitrate= 580.0kbits/s speed=0.0169x elapsed=0:03:33.92    \nframe=  220 fps=1.0 q=44.0 size=     256KiB time=00:00:03.63 bitrate= 577.3kbits/s speed=0.0169x elapsed=0:03:34.42    \nframe=  221 fps=1.0 q=36.3 size=     256KiB time=00:00:03.65 bitrate= 574.7kbits/s speed=0.017x elapsed=0:03:34.94    \nframe=  222 fps=1.0 q=42.4 size=     256KiB time=00:00:03.66 bitrate= 572.0kbits/s speed=0.017x elapsed=0:03:35.46    \nframe=  222 fps=1.0 q=42.4 size=     256KiB time=00:00:03.66 bitrate= 572.0kbits/s speed=0.017x elapsed=0:03:35.97    \nframe=  223 fps=1.0 q=43.0 size=     256KiB time=00:00:03.68 bitrate= 569.5kbits/s speed=0.017x elapsed=0:03:36.49    \nframe=  223 fps=1.0 q=43.0 size=     256KiB time=00:00:03.68 bitrate= 569.5kbits/s speed=0.017x elapsed=0:03:37.00    \nframe=  225 fps=1.0 q=36.6 size=     256KiB time=00:00:03.71 bitrate= 564.4kbits/s speed=0.0171x elapsed=0:03:37.52    \nframe=  226 fps=1.0 q=42.5 size=     256KiB time=00:00:03.73 bitrate= 561.8kbits/s speed=0.0171x elapsed=0:03:38.04    \nframe=  228 fps=1.0 q=43.9 size=     256KiB time=00:00:03.76 bitrate= 556.9kbits/s speed=0.0172x elapsed=0:03:38.56    \nframe=  229 fps=1.0 q=43.9 size=     256KiB time=00:00:03.78 bitrate= 554.4kbits/s speed=0.0173x elapsed=0:03:39.08    \nframe=  229 fps=1.0 q=43.9 size=     256KiB time=00:00:03.78 bitrate= 554.4kbits/s speed=0.0172x elapsed=0:03:39.60    \nframe=  231 fps=1.0 q=43.5 size=     256KiB time=00:00:03.81 bitrate= 549.6kbits/s speed=0.0173x elapsed=0:03:40.12    \nframe=  232 fps=1.1 q=43.8 size=     256KiB time=00:00:03.83 bitrate= 547.2kbits/s speed=0.0174x elapsed=0:03:40.63    \nframe=  233 fps=1.1 q=45.0 size=     256KiB time=00:00:03.85 bitrate= 544.8kbits/s speed=0.0174x elapsed=0:03:41.15    \nframe=  235 fps=1.1 q=36.7 size=     256KiB time=00:00:03.88 bitrate= 540.1kbits/s speed=0.0175x elapsed=0:03:41.67    \nframe=  236 fps=1.1 q=41.2 size=     256KiB time=00:00:03.90 bitrate= 537.8kbits/s speed=0.0176x elapsed=0:03:42.18    \nframe=  236 fps=1.1 q=41.2 size=     256KiB time=00:00:03.90 bitrate= 537.8kbits/s speed=0.0175x elapsed=0:03:42.70    \nframe=  238 fps=1.1 q=42.8 size=     256KiB time=00:00:03.93 bitrate= 533.3kbits/s speed=0.0176x elapsed=0:03:43.22    \nframe=  239 fps=1.1 q=36.0 size=     256KiB time=00:00:03.95 bitrate= 531.0kbits/s speed=0.0177x elapsed=0:03:43.72    \nframe=  241 fps=1.1 q=42.6 size=     256KiB time=00:00:03.98 bitrate= 526.6kbits/s speed=0.0178x elapsed=0:03:44.25    \nframe=  242 fps=1.1 q=43.0 size=     256KiB time=00:00:04.00 bitrate= 524.4kbits/s speed=0.0178x elapsed=0:03:44.77    \nframe=  243 fps=1.1 q=42.8 size=     256KiB time=00:00:04.01 bitrate= 522.2kbits/s speed=0.0178x elapsed=0:03:45.29    \nframe=  245 fps=1.1 q=41.5 size=     256KiB time=00:00:04.05 bitrate= 517.9kbits/s speed=0.0179x elapsed=0:03:45.81    \nframe=  246 fps=1.1 q=42.8 size=     256KiB time=00:00:04.06 bitrate= 515.8kbits/s speed=0.018x elapsed=0:03:46.33    \nframe=  247 fps=1.1 q=43.0 size=     256KiB time=00:00:04.08 bitrate= 513.7kbits/s speed=0.018x elapsed=0:03:46.85    \nframe=  248 fps=1.1 q=34.6 size=     256KiB time=00:00:04.10 bitrate= 511.6kbits/s speed=0.018x elapsed=0:03:47.37    \nframe=  249 fps=1.1 q=41.7 size=     256KiB time=00:00:04.11 bitrate= 509.5kbits/s speed=0.0181x elapsed=0:03:47.88    \nframe=  249 fps=1.1 q=41.7 size=     256KiB time=00:00:04.11 bitrate= 509.5kbits/s speed=0.018x elapsed=0:03:48.40    \nframe=  252 fps=1.1 q=36.0 size=     256KiB time=00:00:04.16 bitrate= 503.4kbits/s speed=0.0182x elapsed=0:03:48.92    \nframe=  253 fps=1.1 q=41.1 size=     256KiB time=00:00:04.18 bitrate= 501.4kbits/s speed=0.0182x elapsed=0:03:49.42    \nframe=  254 fps=1.1 q=42.8 size=     256KiB time=00:00:04.20 bitrate= 499.4kbits/s speed=0.0183x elapsed=0:03:49.95    \nframe=  256 fps=1.1 q=36.1 size=     256KiB time=00:00:04.23 bitrate= 495.5kbits/s speed=0.0184x elapsed=0:03:50.46    \nframe=  256 fps=1.1 q=36.1 size=     256KiB time=00:00:04.23 bitrate= 495.5kbits/s speed=0.0183x elapsed=0:03:50.97    \nframe=  258 fps=1.1 q=43.0 size=     256KiB time=00:00:04.26 bitrate= 491.6kbits/s speed=0.0184x elapsed=0:03:51.49    \nframe=  259 fps=1.1 q=35.7 size=     256KiB time=00:00:04.28 bitrate= 489.7kbits/s speed=0.0185x elapsed=0:03:52.01    \nframe=  259 fps=1.1 q=35.7 size=     256KiB time=00:00:04.28 bitrate= 489.7kbits/s speed=0.0184x elapsed=0:03:52.53    \nframe=  261 fps=1.1 q=40.0 size=     256KiB time=00:00:04.31 bitrate= 485.9kbits/s speed=0.0185x elapsed=0:03:53.03    \nframe=  262 fps=1.1 q=35.9 size=     256KiB time=00:00:04.33 bitrate= 484.0kbits/s speed=0.0186x elapsed=0:03:53.55    \nframe=  264 fps=1.1 q=39.5 size=     512KiB time=00:00:04.36 bitrate= 960.6kbits/s speed=0.0187x elapsed=0:03:54.07    \nframe=  265 fps=1.1 q=35.6 size=     512KiB time=00:00:04.38 bitrate= 957.0kbits/s speed=0.0187x elapsed=0:03:54.59    \nframe=  265 fps=1.1 q=35.6 size=     512KiB time=00:00:04.38 bitrate= 957.0kbits/s speed=0.0186x elapsed=0:03:55.11    \nframe=  266 fps=1.1 q=39.1 size=     512KiB time=00:00:04.40 bitrate= 953.3kbits/s speed=0.0187x elapsed=0:03:55.63    \nframe=  267 fps=1.1 q=41.0 size=     512KiB time=00:00:04.41 bitrate= 949.7kbits/s speed=0.0187x elapsed=0:03:56.15    \nframe=  269 fps=1.1 q=39.1 size=     512KiB time=00:00:04.45 bitrate= 942.6kbits/s speed=0.0188x elapsed=0:03:56.66    \nframe=  270 fps=1.1 q=41.0 size=     512KiB time=00:00:04.46 bitrate= 939.1kbits/s speed=0.0188x elapsed=0:03:57.18    \nframe=  271 fps=1.1 q=42.0 size=     512KiB time=00:00:04.48 bitrate= 935.6kbits/s speed=0.0189x elapsed=0:03:57.70    \nframe=  272 fps=1.1 q=35.2 size=     512KiB time=00:00:04.50 bitrate= 932.1kbits/s speed=0.0189x elapsed=0:03:58.22    \nframe=  273 fps=1.1 q=39.0 size=     512KiB time=00:00:04.51 bitrate= 928.7kbits/s speed=0.0189x elapsed=0:03:58.72    \nframe=  273 fps=1.1 q=39.0 size=     512KiB time=00:00:04.51 bitrate= 928.7kbits/s speed=0.0189x elapsed=0:03:59.24    \nframe=  274 fps=1.1 q=41.8 size=     512KiB time=00:00:04.53 bitrate= 925.3kbits/s speed=0.0189x elapsed=0:03:59.77    \nframe=  276 fps=1.1 q=35.3 size=     512KiB time=00:00:04.56 bitrate= 918.5kbits/s speed=0.019x elapsed=0:04:00.27    \nframe=  277 fps=1.2 q=40.2 size=     512KiB time=00:00:04.58 bitrate= 915.2kbits/s speed=0.019x elapsed=0:04:00.79    \nframe=  277 fps=1.1 q=40.2 size=     512KiB time=00:00:04.58 bitrate= 915.2kbits/s speed=0.019x elapsed=0:04:01.31    \nframe=  279 fps=1.2 q=39.7 size=     512KiB time=00:00:04.61 bitrate= 908.6kbits/s speed=0.0191x elapsed=0:04:01.81    \nframe=  281 fps=1.2 q=38.7 size=     512KiB time=00:00:04.65 bitrate= 902.1kbits/s speed=0.0192x elapsed=0:04:02.33    \nframe=  282 fps=1.2 q=37.8 size=     512KiB time=00:00:04.66 bitrate= 898.9kbits/s speed=0.0192x elapsed=0:04:02.85    \nframe=  282 fps=1.2 q=37.8 size=     512KiB time=00:00:04.66 bitrate= 898.9kbits/s speed=0.0192x elapsed=0:04:03.37    \nframe=  284 fps=1.2 q=38.3 size=     512KiB time=00:00:04.70 bitrate= 892.5kbits/s speed=0.0193x elapsed=0:04:03.88    \nframe=  285 fps=1.2 q=34.5 size=     512KiB time=00:00:04.71 bitrate= 889.3kbits/s speed=0.0193x elapsed=0:04:04.40    \nframe=  285 fps=1.2 q=34.5 size=     512KiB time=00:00:04.71 bitrate= 889.3kbits/s speed=0.0193x elapsed=0:04:04.92    \nframe=  287 fps=1.2 q=37.8 size=     512KiB time=00:00:04.75 bitrate= 883.1kbits/s speed=0.0194x elapsed=0:04:05.42    \nframe=  288 fps=1.2 q=34.6 size=     512KiB time=00:00:04.76 bitrate= 880.0kbits/s speed=0.0194x elapsed=0:04:05.94    \nframe=  289 fps=1.2 q=34.6 size=     512KiB time=00:00:04.78 bitrate= 876.9kbits/s speed=0.0194x elapsed=0:04:06.47    \nframe=  289 fps=1.2 q=34.6 size=     512KiB time=00:00:04.78 bitrate= 876.9kbits/s speed=0.0194x elapsed=0:04:06.97    \nframe=  290 fps=1.2 q=36.7 size=     512KiB time=00:00:04.80 bitrate= 873.9kbits/s speed=0.0194x elapsed=0:04:07.50    \nframe=  292 fps=1.2 q=35.0 size=     512KiB time=00:00:04.83 bitrate= 867.9kbits/s speed=0.0195x elapsed=0:04:08.02    \nframe=  292 fps=1.2 q=35.0 size=     512KiB time=00:00:04.83 bitrate= 867.9kbits/s speed=0.0194x elapsed=0:04:08.52    \nframe=  293 fps=1.2 q=36.7 size=     512KiB time=00:00:04.85 bitrate= 864.9kbits/s speed=0.0195x elapsed=0:04:09.04    \nframe=  295 fps=1.2 q=35.6 size=     512KiB time=00:00:04.88 bitrate= 859.0kbits/s speed=0.0196x elapsed=0:04:09.56    \nframe=  297 fps=1.2 q=34.5 size=     512KiB time=00:00:04.91 bitrate= 853.2kbits/s speed=0.0197x elapsed=0:04:10.07    \nframe=  299 fps=1.2 q=39.8 size=     512KiB time=00:00:04.95 bitrate= 847.4kbits/s speed=0.0198x elapsed=0:04:10.59    \n[mp4 @ 000002688a4000c0] Starting second pass: moving the moov atom to the beginning of the file\n[out#0/mp4 @ 0000026889e2ab40] video:568KiB audio:0KiB subtitle:0KiB other streams:0KiB global headers:2KiB muxing overhead: 1.223419%\nframe=  300 fps=1.2 q=37.4 Lsize=     575KiB time=00:00:04.96 bitrate= 949.1kbits/s speed=0.0198x elapsed=0:04:10.62    \nx265 [info]: frame I:      2, Avg QP:40.00  kb/s: 2969.52 \nx265 [info]: frame P:     76, Avg QP:36.39  kb/s: 2950.16 \nx265 [info]: frame B:    222, Avg QP:41.36  kb/s: 219.37  \nx265 [info]: Weighted P-Frames: Y:18.4% UV:18.4%\n\nencoded 300 frames in 250.33s (1.20 fps), 929.50 kb/s, Avg QP:40.09\n",
  "seconds": 250.8824143409729,
  "probe_out": {}
}